<?xml version="1.0" encoding="UTF-8"?>
<svg width="752pt" height="752pt" version="1.1" viewBox="0 0 752 752" xmlns="http://www.w3.org/2000/svg">
 <path d="m576.47 187.99c-1.4648-0.84375-3.2695-0.84375-4.7383 0-77.004 39.309-120.71 30.359-205.2-14.633-87.613-46.789-185.93-13.355-190.05-11.887h-0.42578c-0.33203 0.17969-0.64844 0.38281-0.94531 0.61719l-0.61719 0.80469c-0.24609 0.28516-0.45313 0.60547-0.61328 0.94531-0.10938 0.14453-0.1875 0.30469-0.23828 0.47656-0.21094 0.52734-0.32031 1.0859-0.33203 1.6562v432.62c0 2.6133 2.1211 4.7344 4.7344 4.7344 2.6172 0 4.7383-2.1211 4.7383-4.7344v-183.89c17.379-5.2578 103.86-27.988 179.39 12.312 48.164 25.668 84.535 40.492 122.38 40.492 27.988 0 56.828-8.0977 91.59-26 1.4883-0.76562 2.457-2.2578 2.5586-3.9297v-245.55c0.003907-1.6367-0.83984-3.1602-2.2266-4.0273zm-7.2461 246.26c-75.488 38.125-119.11 28.891-202.69-15.625-32.598-16.82-68.84-25.344-105.52-24.816-26.461 0.050781-52.785 3.75-78.234 10.988v-235.37c17.473-5.3047 103.95-27.988 179.39 12.406 81.359 43.379 129.19 55.836 207.05 17.996z"/>
</svg>
